<?xml version="1.0" encoding="UTF-8"?>
<svg version="1.1" xmlns="http://www.w3.org/2000/svg" width="662" height="662">
<path d="M0 0 C3.81476129 0.00849937 7.62801232 -0.02037897 11.44262695 -0.05200195 C36.828211 -0.12374892 61.52471618 3.31065849 86.14770508 9.44604492 C87.41275879 9.75832031 87.41275879 9.75832031 88.70336914 10.0769043 C111.59425191 15.85518538 134.19925454 24.56969267 155.14770508 35.44604492 C155.87924805 35.8255127 156.61079102 36.20498047 157.36450195 36.59594727 C183.53816847 50.33997957 207.72260614 67.71102763 229.32348633 87.86791992 C231.28526253 89.65875297 233.23884975 91.3605061 235.29223633 93.03588867 C237.64188691 95.01910948 239.57070543 96.90524586 241.52270508 99.25854492 C243.86686098 102.01727862 246.27771367 104.5740327 248.89770508 107.07104492 C254.11240122 112.20489307 258.43071015 118.02918677 262.87963867 123.81958008 C264.52195589 125.92607167 266.24421924 127.96185518 267.96020508 130.00854492 C274.64596396 138.35544718 280.3701582 147.45969549 286.14770508 156.44604492 C286.83268066 157.51121338 286.83268066 157.51121338 287.53149414 158.59790039 C309.33219408 192.9693714 323.63220657 232.49408486 330.61231995 272.45957947 C330.94055857 274.29054799 331.28904233 276.11820338 331.67181396 277.93855286 C333.56851145 287.60573046 333.47572444 297.21486431 333.48364258 307.02416992 C333.49009035 308.92250666 333.49682007 310.82084245 333.5038147 312.71917725 C333.51573703 316.68967991 333.51950123 320.66009596 333.51831055 324.63061523 C333.51814871 328.65293498 333.5319295 332.67479588 333.55932617 336.69702148 C333.84687362 379.52601103 333.84687362 379.52601103 329.14770508 399.44604492 C328.75474378 401.20538133 328.36224721 402.9648216 327.97021484 404.72436523 C315.88183433 458.43735352 290.01233553 507.90421269 254.14770508 549.44604492 C253.49672852 550.21045898 252.84575195 550.97487305 252.17504883 551.76245117 C248.05515078 556.55805004 243.65615515 561.01715574 239.14770508 565.44604492 C236.6997309 567.88232495 234.26358052 570.32661017 231.85864258 572.80541992 C225.96579701 578.83622508 219.78947029 584.26175101 213.14770508 589.44604492 C212.51944824 589.94007813 211.89119141 590.43411133 211.24389648 590.94311523 C196.3421574 602.63256728 180.97589852 612.88254377 164.45727539 622.1496582 C162.99505558 622.97041795 161.5356827 623.79628824 160.08032227 624.62915039 C127.19533323 643.4007947 89.09286337 655.16382826 51.63427734 660.09790039 C49.8456519 660.34832551 48.06245221 660.63868679 46.28417969 660.9543457 C32.64770976 663.1647042 18.86195877 662.84413299 5.08520508 662.82104492 C4.41467857 662.82065845 3.74415207 662.82027199 3.05330658 662.81987381 C-16.85021696 662.80541784 -36.28852244 662.51963761 -55.85229492 658.44604492 C-57.04628906 658.20998535 -58.2402832 657.97392578 -59.47045898 657.73071289 C-118.08739661 645.93890092 -174.37553506 618.97926715 -218.18041992 577.93432617 C-220.40653052 575.86117932 -222.6647711 573.85844027 -224.97729492 571.88354492 C-232.53221568 565.31814601 -239.38194049 558.06847075 -245.85229492 550.44604492 C-246.65022461 549.53725586 -247.4481543 548.6284668 -248.27026367 547.69213867 C-270.10919917 522.64549647 -287.40057166 493.76072955 -300.85229492 463.44604492 C-301.13878906 462.81585449 -301.4252832 462.18566406 -301.72045898 461.53637695 C-311.75070225 439.34774439 -318.19436514 415.28875567 -322.85229492 391.44604492 C-323.06257324 390.42913574 -323.27285156 389.41222656 -323.48950195 388.36450195 C-330.77873255 351.69903718 -330.46762275 308.01929919 -322.85229492 271.44604492 C-322.61623535 270.25205078 -322.38017578 269.05805664 -322.13696289 267.82788086 C-310.34515092 209.21094323 -283.38551715 152.92280479 -242.34057617 109.11791992 C-240.26742932 106.89180933 -238.26469027 104.63356875 -236.28979492 102.32104492 C-229.72439601 94.76612416 -222.47472075 87.91639936 -214.85229492 81.44604492 C-213.94350586 80.64811523 -213.0347168 79.85018555 -212.09838867 79.02807617 C-169.97266187 42.29233239 -117.99837661 18.10187909 -63.66479492 6.13354492 C-62.63523682 5.90320557 -61.60567871 5.67286621 -60.54492188 5.43554688 C-40.47949323 1.22855349 -20.4691339 -0.06913926 0 0 Z " fill="#0758D0" transform="translate(328.852294921875,-0.446044921875)"/>
<path d="M0 0 C16.83 0 33.66 0 51 0 C51 12.87 51 25.74 51 39 C56.61 39 62.22 39 68 39 C68 84.87 68 130.74 68 178 C71.3 178 74.6 178 78 178 C78 180.97 78 183.94 78 187 C69.09 187 60.18 187 51 187 C51 197.23 51 207.46 51 218 C34.17 218 17.34 218 0 218 C0 207.77 0 197.54 0 187 C-8.91 187 -17.82 187 -27 187 C-27 184.03 -27 181.06 -27 178 C-23.7 178 -20.4 178 -17 178 C-17 166.78 -17 155.56 -17 144 C-22.61 144 -28.22 144 -34 144 C-34 142.02 -34 140.04 -34 138 C-44.23311487 138.06172219 -54.46598541 138.13918416 -64.69883442 138.23571491 C-69.45244402 138.28008505 -74.20597444 138.31941041 -78.9597168 138.34643555 C-83.56350978 138.37280672 -88.16699232 138.41343548 -92.77058983 138.46318626 C-94.51043975 138.47963009 -96.25034307 138.491282 -97.99025917 138.49761391 C-113.61662088 138.5601271 -129.20402321 139.97713543 -144.1875 144.6875 C-145.00863281 144.94023682 -145.82976562 145.19297363 -146.67578125 145.45336914 C-154.91617099 148.10582431 -162.44746404 151.81179448 -170 156 C-171.07894531 156.5775 -172.15789062 157.155 -173.26953125 157.75 C-180.51903207 161.77026233 -186.73816241 166.59116815 -193 172 C-193.70898438 172.57492188 -194.41796875 173.14984375 -195.1484375 173.7421875 C-211.65477436 187.37785708 -223.66647577 208.00910236 -230.8125 228 C-231.22943115 229.15447632 -231.22943115 229.15447632 -231.65478516 230.33227539 C-235.92089292 242.85666418 -237.50339518 255.07075572 -237.39111328 268.20629883 C-237.37503192 270.4330794 -237.39106793 272.6580394 -237.41015625 274.88476562 C-237.43159229 288.4829864 -235.33542263 301.40694867 -230.9375 314.3125 C-230.63932373 315.1893042 -230.34114746 316.0661084 -230.03393555 316.96948242 C-220.26001444 344.53803162 -201.76020775 368.35987949 -177 384 C-176.07646729 384.58539551 -176.07646729 384.58539551 -175.13427734 385.18261719 C-156.72422236 396.63755265 -134.79988172 404.2214328 -113 405 C-112.37287109 405.03109863 -111.74574219 405.06219727 -111.09960938 405.09423828 C-87.3665744 406.16859542 -64.15984332 400.68955816 -43 390 C-42.06671875 389.53851563 -41.1334375 389.07703125 -40.171875 388.6015625 C-15.60328995 375.89609423 3.75285251 354.41194008 15.75 329.75 C16.09047363 329.06156006 16.43094727 328.37312012 16.78173828 327.66381836 C20.81360615 319.00761719 23.07241422 310.27068829 26 301 C-16.9 301 -59.8 301 -104 301 C-104 291.43 -104 281.86 -104 272 C-32.06 272 39.88 272 114 272 C111.46110381 332.93350861 91.77847892 382.60238096 50 427 C49.38382812 427.65871094 48.76765625 428.31742187 48.1328125 428.99609375 C43.16159624 434.14570293 37.5994082 438.55683324 32 443 C30.98679687 443.81855469 29.97359375 444.63710938 28.9296875 445.48046875 C21.04342091 451.77553918 12.78964967 457.05960351 4 462 C3.29665527 462.4021875 2.59331055 462.804375 1.86865234 463.21875 C-18.87320446 475.00023512 -40.69945657 482.18997899 -64 487 C-64.79100098 487.17789062 -65.58200195 487.35578125 -66.39697266 487.5390625 C-118.61520233 499.13544398 -177.42538263 484.95493545 -222.0625 457.0625 C-235.46906533 448.43327946 -247.48081379 437.98027691 -259 427 C-259.79921875 426.24203125 -260.5984375 425.4840625 -261.421875 424.703125 C-267.10505696 419.17672047 -272.13414745 413.25266061 -277 407 C-277.63010986 406.20045898 -277.63010986 406.20045898 -278.27294922 405.38476562 C-298.02337283 380.16397997 -310.89245815 350.96273752 -318.25 319.9375 C-318.49645264 318.90995605 -318.74290527 317.88241211 -318.99682617 316.82373047 C-322.1998829 302.72496645 -323.34149312 288.70007849 -323.26074219 274.27050781 C-323.2500018 272.00037968 -323.26073351 269.73104236 -323.2734375 267.4609375 C-323.28699003 253.86280354 -321.97979295 240.46078144 -319.25 227.125 C-319.08226074 226.30040283 -318.91452148 225.47580566 -318.74169922 224.6262207 C-312.11856391 193.50221978 -297.88164653 162.8608866 -278 138 C-276.95779297 136.6696875 -276.95779297 136.6696875 -275.89453125 135.3125 C-267.51746348 124.81446243 -258.47209257 114.45753057 -248 106 C-246.92550952 105.10188749 -245.85131995 104.20341493 -244.77734375 103.3046875 C-196.24166936 63.11782957 -141.21929618 52.18027125 -79.88903809 52.7253418 C-74.69887954 52.7669405 -69.50863808 52.78467188 -64.31835938 52.8046875 C-54.21202826 52.84704046 -44.10605571 52.91491668 -34 53 C-34 51.35 -34 49.7 -34 48 C-28.39 48 -22.78 48 -17 48 C-17 45.36 -17 42.72 -17 40 C-11.39 40 -5.78 40 0 40 C0 26.8 0 13.6 0 0 Z " fill="#FEFEFE" transform="translate(433,58)"/>
<path d="M0 0 C0.99095673 -0.00860046 1.98191345 -0.01720093 3.00289917 -0.02606201 C4.08914078 -0.03032196 5.17538239 -0.03458191 6.29454041 -0.03897095 C8.01211548 -0.05123718 8.01211548 -0.05123718 9.76438904 -0.06375122 C13.56341529 -0.08861352 17.36240408 -0.10512557 21.16148376 -0.11953735 C22.45912596 -0.12486103 23.75676815 -0.13018471 25.09373283 -0.13566971 C30.55052245 -0.15690313 36.00729991 -0.17603135 41.46411991 -0.1872921 C49.26645673 -0.20350187 57.06829324 -0.23660567 64.8704415 -0.29369295 C70.36530484 -0.33251606 75.8600351 -0.35193964 81.35503191 -0.35721266 C84.6319152 -0.360851 87.9081451 -0.37524269 91.18490791 -0.4053154 C94.84943938 -0.43702163 98.51271962 -0.43699422 102.17735291 -0.42959595 C103.2494249 -0.44600128 104.32149689 -0.46240662 105.42605591 -0.47930908 C113.89621903 -0.40959581 121.09847962 1.85796437 127.25132751 7.90390015 C127.89070251 8.64640015 128.53007751 9.38890015 129.18882751 10.15390015 C130.99364319 11.95871582 133.77748338 11.28415673 136.20835876 11.29452515 C137.45939392 11.31386108 138.71042908 11.33319702 139.99937439 11.3531189 C142.6251884 11.39102055 145.24793612 11.40515744 147.87437439 11.4078064 C158.28808912 11.60939639 167.5163573 13.3842175 175.31382751 20.71640015 C178.78435477 24.45455512 180.47331 27.62376784 180.43882751 32.77890015 C180.44656189 33.94292358 180.44656189 33.94292358 180.45445251 35.13046265 C180.18882751 37.15390015 180.18882751 37.15390015 178.18882751 39.15390015 C176.3601113 39.40574914 176.3601113 39.40574914 174.09362125 39.40837574 C173.23109055 39.41420793 172.36855984 39.42004013 171.47989184 39.42604905 C170.52669965 39.42226973 169.57350746 39.41849041 168.59143066 39.41459656 C167.58320108 39.4184221 166.57497149 39.42224765 165.5361895 39.42618912 C162.13592629 39.43656119 158.73583062 39.43251901 155.33555603 39.42855835 C152.90666039 39.43290249 150.47776612 39.43808464 148.0488739 39.44404602 C142.12316929 39.45608212 136.1975067 39.45858355 130.27179451 39.45624576 C125.4568355 39.45446525 120.64189027 39.45620649 115.82693291 39.4604702 C115.14255583 39.46106539 114.45817875 39.46166058 113.75306297 39.4622738 C112.36290423 39.46348551 110.97274549 39.46469964 109.58258676 39.46591618 C96.5351632 39.47680155 83.48776547 39.47462453 70.44034045 39.46853133 C58.49555412 39.46336146 46.55084931 39.47461768 34.60607911 39.49362955 C22.35100909 39.51298628 10.09597767 39.52126776 -2.15910774 39.5175063 C-9.04333908 39.51559093 -15.927501 39.51811432 -22.81171989 39.53222084 C-29.28361368 39.54534784 -35.75538479 39.54290409 -42.22727966 39.52980995 C-44.60776893 39.52743335 -46.98826953 39.53021731 -49.3687458 39.53843307 C-52.60828773 39.54881076 -55.84727087 39.5408723 -59.08679199 39.52812195 C-60.03775346 39.53549623 -60.98871492 39.54287052 -61.9684934 39.55046827 C-62.83363186 39.54326172 -63.69877031 39.53605518 -64.59012508 39.52863026 C-65.33822915 39.52868527 -66.08633322 39.52874029 -66.8571071 39.52879697 C-69.36129903 39.04835573 -70.25979866 38.13995573 -71.81117249 36.15390015 C-72.3675297 31.6682701 -71.25857122 27.27714582 -68.87367249 23.46640015 C-64.16081291 17.57532568 -56.92137186 14.19557963 -49.81117249 12.15390015 C-46.54725647 11.91439819 -46.54725647 11.91439819 -43.05726624 11.9156189 C-41.79076233 11.89950562 -40.52425842 11.88339233 -39.21937561 11.86679077 C-36.56838303 11.84983902 -33.91728942 11.84466494 -31.26625061 11.85116577 C-29.36842834 11.82119507 -29.36842834 11.82119507 -27.43226624 11.7906189 C-26.28169739 11.78763794 -25.13112854 11.78465698 -23.94569397 11.78158569 C-19.90098734 10.97163626 -18.47192661 9.21913807 -15.81117249 6.15390015 C-13.67835999 4.60702515 -13.67835999 4.60702515 -11.68617249 3.40390015 C-11.02359436 2.9965564 -10.36101624 2.58921265 -9.67835999 2.16952515 C-6.3753929 0.37293217 -3.68854318 0.02384988 0 0 Z " fill="#FEFEFE" transform="translate(273.81117248535156,562.8460998535156)"/>
</svg>
